# xmcd
#
# Track frame offsets: 
#        150
#        16893
#        32820
#        48205
#        64028
#        80503
#        90055
#        103298
#        120203
#        134273
#
# Disc length: 2002 seconds
#
# Revision: 3
# Processed by: cddbd v1.5.2PL0 Copyright (c) Steve Scherf et al.
# Submitted via: ExactAudioCopy v1.1
#
DISCID=6f07d00a
DTITLE=Bobbie Cryner - Bobbie Cryner
DYEAR=1993
DGENRE=Country
TTITLE0=He Feels Guilty
TTITLE1=Too Many Tears Too Late
TTITLE2=Daddy Laid The Blues On Me
TTITLE3=I Think It's Over Now
TTITLE4=Leavin' Houston Blues
TTITLE5=I Don't Care  (ft. Dwight Yoakam)
TTITLE6=You Could Steal Me
TTITLE7=I'm Through Waitin' On You
TTITLE8=The One I Love The Most
TTITLE9=This Heart Speaks For Itself
EXTD=YEAR: 1993
EXTT0=
EXTT1=
EXTT2=
EXTT3=
EXTT4=
EXTT5=
EXTT6=
EXTT7=
EXTT8=
EXTT9=
PLAYORDER=
